<?xml version="1.0" encoding="UTF-8"?>
<svg width="203.730522px" height="84.7927014px" fill="currentColor" viewBox="0 0 203.730522 84.7927014" version="1.1" xmlns="http://www.w3.org/2000/svg" xmlns:xlink="http://www.w3.org/1999/xlink">
    <title>wordmark</title>
    <g id="Page-1" stroke="none" stroke-width="1" fill-rule="evenodd">
        <g id="wordmark" transform="translate(3.6524, 0)" fill-rule="nonzero">
            <g id="Y" transform="translate(0, 17.574)" stroke-width="2">
                <path d="M11.7117273,-1 L30.7041414,29.5153895 L49.7421009,-1 L63.2793234,-1 L36.53125,40.8392106 L36.53125,66.2077923 L24.921875,66.2077923 L24.921875,40.8392106 L-1.82619836,-1 L11.7117273,-1 Z" id="Path"></path>
            </g>
            <polygon id="Path" points="115.01285 -8.84485529e-16 97.5271287 14.5865172 106.515326 17.5739514 124.136377 2.09137895"></polygon>
            <g id="o" transform="translate(148.0781, 24.7927)">
                <path d="M52,48.9014085 C52,50.4413146 51.7082881,51.8873239 51.1248643,53.2394366 C50.5414405,54.5915493 49.7509953,55.7652582 48.7535288,56.7605634 C47.7560623,57.7558685 46.5892146,58.5446009 45.2529859,59.1267606 C43.9167571,59.7089202 42.4770177,60 40.9337676,60 L11.0662324,60 C9.56062251,60 8.13029316,59.7089202 6.7752443,59.1267606 C5.42019544,58.5446009 4.24393775,57.7558685 3.24647123,56.7605634 C2.24900471,55.7652582 1.45855954,54.5915493 0.875135722,53.2394366 C0.291711907,51.8873239 0,50.4413146 0,48.9014085 L0,11.0985915 C0,9.55868545 0.291711907,8.11267606 0.875135722,6.76056338 C1.45855954,5.4084507 2.24900471,4.23474178 3.24647123,3.23943662 C4.24393775,2.24413146 5.42019544,1.45539906 6.7752443,0.873239437 C8.13029316,0.291079812 9.56062251,0 11.0662324,0 L40.9337676,0 C42.4770177,0 43.9167571,0.291079812 45.2529859,0.873239437 C46.5892146,1.45539906 47.7560623,2.24413146 48.7535288,3.23943662 C49.7509953,4.23474178 50.5414405,5.4084507 51.1248643,6.76056338 C51.7082881,8.11267606 52,9.55868545 52,11.0985915 L52,48.9014085 Z M11.0662324,11.0985915 L11.0662324,48.9014085 L40.9337676,48.9014085 L40.9337676,11.0985915 L11.0662324,11.0985915 Z" id="Shape"></path>
            </g>
            <g id="a" transform="translate(78.0781, 24.7927)">
                <path d="M0,33.8028169 C0,32.2629108 0.29245283,30.8262911 0.877358491,29.4929577 C1.46226415,28.1596244 2.25471698,26.9859155 3.25471698,25.971831 C4.25471698,24.9577465 5.43396226,24.1596244 6.79245283,23.5774648 C8.1509434,22.9953052 9.58490566,22.7042254 11.0943396,22.7042254 L39.8490566,22.7042254 L39.8490566,11.0985915 L3.45283019,11.0985915 L3.45283019,0 L39.8490566,0 C41.3962264,0 42.8490566,0.291079812 44.2075472,0.873239437 C45.5660377,1.45539906 46.745283,2.24413146 47.745283,3.23943662 C48.745283,4.23474178 49.5377358,5.4084507 50.1226415,6.76056338 C50.7075472,8.11267606 51,9.55868545 51,11.0985915 L51,60 L39.8490566,60 L39.8490566,49.8591549 C39.7358491,51.2488263 39.3584906,52.5633803 38.7169811,53.8028169 C38.0754717,55.0422535 37.254717,56.1220657 36.254717,57.0422535 C35.254717,57.9624413 34.1132075,58.685446 32.8301887,59.2112676 C31.5471698,59.7370892 30.1886792,60 28.754717,60 L11.0943396,60 C9.58490566,60 8.1509434,59.7089202 6.79245283,59.1267606 C5.43396226,58.5446009 4.25471698,57.7558685 3.25471698,56.7605634 C2.25471698,55.7652582 1.46226415,54.5915493 0.877358491,53.2394366 C0.29245283,51.8873239 0,50.4413146 0,48.9014085 L0,33.8028169 Z M11.0943396,48.9014085 L39.8490566,48.9014085 L39.8490566,33.8028169 L11.0943396,33.8028169 L11.0943396,48.9014085 Z" id="Shape"></path>
            </g>
        </g>
    </g>
</svg>